PathFileType	4	(X/Y/Z)	/Users/itak/Documents/Research/Walk-IL/dataset/trc/00408_00012.trc
DataRate	CameraRate	NumFrames	NumMarkers	Units	OrigDataRate	OrigDataStartFrame	OrigNumFrames
100.000000	100.000000	4	55	mm	100.000000	0	673
Frame#	Time	RPSI			LPSI			L3			STRN			T10			C7			CLAV			RBAK			LBAK			LSHO			LUPA			LAEL			LAOL			LWTS			LWPS			LFRA			LHPS			LHTS			RSHO			RUPA			RAEL			RAOL			RWTS			RWPS			RFRA			RIFD			RHPS			RBHD			LFHD			RFHD			LBHD			LHIP			RHIP			RASI			LASI			LKNE			LTHI			LANK			LTIP			LTOE			LMT1			LMT5			LHEE			RKNE			RTHI			RANK			RTIP			RTOE			RMT1			RMT5			RHEE			RHTS			LIFD			*53			*54			
		X1	Y1	Z1	X2	Y2	Z2	X3	Y3	Z3	X4	Y4	Z4	X5	Y5	Z5	X6	Y6	Z6	X7	Y7	Z7	X8	Y8	Z8	X9	Y9	Z9	X10	Y10	Z10	X11	Y11	Z11	X12	Y12	Z12	X13	Y13	Z13	X14	Y14	Z14	X15	Y15	Z15	X16	Y16	Z16	X17	Y17	Z17	X18	Y18	Z18	X19	Y19	Z19	X20	Y20	Z20	X21	Y21	Z21	X22	Y22	Z22	X23	Y23	Z23	X24	Y24	Z24	X25	Y25	Z25	X26	Y26	Z26	X27	Y27	Z27	X28	Y28	Z28	X29	Y29	Z29	X30	Y30	Z30	X31	Y31	Z31	X32	Y32	Z32	X33	Y33	Z33	X34	Y34	Z34	X35	Y35	Z35	X36	Y36	Z36	X37	Y37	Z37	X38	Y38	Z38	X39	Y39	Z39	X40	Y40	Z40	X41	Y41	Z41	X42	Y42	Z42	X43	Y43	Z43	X44	Y44	Z44	X45	Y45	Z45	X46	Y46	Z46	X47	Y47	Z47	X48	Y48	Z48	X49	Y49	Z49	X50	Y50	Z50	X51	Y51	Z51	X52	Y52	Z52	X53	Y53	Z53	X54	Y54	Z54	X55	Y55	Z55	

1	0	257.6031188964844	989.2704467773438	1079.728759765625	276.2966003417969	982.2272338867188	1209.95751953125	267.724609375	1054.534790039062	1142.25439453125	36.77011108398438	1218.941772460938	1165.877807617188	283.6369018554688	1158.558471679688	1140.6728515625	256.8070068359375	1408.64453125	1154.258178710938	95.08914947509766	1336.384643554688	1161.4794921875	287.2666931152344	1262.482666015625	1081.680786132812	276.1916809082031	1369.82421875	1257.843383789062	192.3275299072266	1389.367919921875	1311.291015625	200.9957275390625	1275.774780273438	1388.35498046875	142.5650939941406	1085.4990234375	1423.629150390625	207.7975311279297	1051.678344726562	1382.515747070312	43.86520385742188	880.164794921875	1350.316162109375	55.34659957885742	868.7005004882812	1431.133666992188	104.2088928222656	987.3070678710938	1431.135375976562	39.26591110229492	784.1812744140625	1420.018432617188	9.747030258178711	785.36376953125	1364.121826171875	182.5208740234375	1394.1533203125	1001.6396484375	187.4313659667969	1329.596435546875	939.7955322265625	146.1671295166016	1072.039184570312	888.2139282226562	179.5760498046875	1053.535888671875	974.8816528320312	7.349596500396729	866.881103515625	923.6942138671875	34.06180953979492	860.0945434570312	854.96142578125	111.6763458251953	1013.046203613281	871.0972900390625	-5.341571807861328	694.2300415039062	903.0227661132812	23.37504959106445	771.3646240234375	847.8063354492188	214.2721862792969	1596.284057617188	1064.322265625	93.08431243896484	1612.108642578125	1220.0224609375	85.31504821777344	1611.531616210938	1098.048828125	240.5980834960938	1593.813110351562	1223.77783203125	203.0830688476562	970.0792236328125	1331.77099609375	161.6082305908203	965.3735961914062	975.31396484375	35.78546142578125	975.1700439453125	1046.6669921875	84.39314270019531	966.2108764648438	1306.911254882812	161.8868865966797	476.3909606933594	1320.391723632812	166.8589630126953	619.0867919921875	1329.216552734375	246.9930419921875	39.96379852294922	1268.086059570312	209.0095977783203	246.3898773193359	1306.34326171875	24.91679954528809	46.51771545410156	1239.38037109375	98.22548675537109	46.63874053955078	1197.27880859375	123.9864730834961	41.00160598754883	1299.946899414062	274.0761108398438	37.6303596496582	1206.312622070312	127.3134155273438	473.6743774414062	1001.913391113281	87.61883544921875	735.320556640625	982.5333251953125	185.3191223144531	55.32870483398438	1029.36181640625	122.4433822631836	348.4363708496094	1018.269775390625	16.83111381530762	41.71584320068359	1119.63720703125	81.51268768310547	55.56538009643555	1143.864013671875	99.00029754638672	45.04247665405273	1037.452880859375	263.224609375	41.24461364746094	1069.843017578125	-18.90027046203613	764.50634765625	901.5161743164062	27.65476989746094	701.1359252929688	1363.462890625	nan	nan	nan	nan	nan	nan	
2	0.01	257.5490112304688	989.2908935546875	1079.613037109375	276.3443298339844	982.2650146484375	1209.818969726562	267.6817321777344	1054.571411132812	1142.141723632812	36.79278564453125	1218.890380859375	1165.862915039062	283.5233154296875	1158.5576171875	1140.507568359375	256.7373046875	1408.665405273438	1154.052856445312	95.04496765136719	1336.296020507812	1161.336547851562	287.1566467285156	1262.492919921875	1081.491088867188	276.1456909179688	1369.89111328125	1257.659423828125	192.4027252197266	1389.40283203125	1311.147827148438	201.0440979003906	1275.815673828125	1388.196655273438	142.5635528564453	1085.541625976562	1423.519165039062	207.8605804443359	1051.728881835938	1382.353881835938	44.0118408203125	880.1310424804688	1350.4306640625	55.66719436645508	868.7308959960938	1431.307006835938	104.3503036499023	987.4105224609375	1431.085815429688	39.53642272949219	784.2391357421875	1420.314575195312	10.15814113616943	785.2642211914062	1364.310180664062	182.3273773193359	1394.152465820312	1001.50732421875	187.1544342041016	1329.564697265625	939.626953125	145.7484283447266	1072.010009765625	888.1775512695312	179.2161560058594	1053.509643554688	974.8485107421875	6.528620719909668	867.106201171875	923.8832397460938	33.23897933959961	860.2139282226562	855.1851196289062	111.1386032104492	1013.029357910156	871.151611328125	-6.441083908081055	694.4715576171875	903.4445190429688	22.38907241821289	771.4791259765625	848.107666015625	214.2200164794922	1596.295043945312	1064.219970703125	93.31920623779297	1612.177734375	1220.140258789062	85.38188934326172	1611.70068359375	1098.083984375	240.7607879638672	1593.672607421875	1223.588989257812	203.120361328125	970.0791625976562	1331.680053710938	161.4846496582031	965.3762817382812	975.2801513671875	35.60660171508789	975.1954956054688	1046.740112304688	84.51953887939453	966.2202758789062	1306.940307617188	161.9203948974609	476.3955993652344	1320.38916015625	166.9809875488281	619.0953979492188	1329.196533203125	247.0023193359375	39.95735168457031	1268.084228515625	209.0427398681641	246.3855590820312	1306.33740234375	24.92178535461426	46.52572631835938	1239.389892578125	98.22923278808594	46.63880157470703	1197.272583007812	123.9978866577148	41.00650405883789	1299.945678710938	274.002197265625	37.59516143798828	1206.3154296875	127.3396301269531	473.6682434082031	1001.864440917969	87.60079956054688	735.307373046875	982.5211791992188	185.3163757324219	55.32526397705078	1029.361083984375	122.4494018554688	348.4645690917969	1018.211730957031	16.83221054077148	41.716064453125	1119.637451171875	81.51151275634766	55.56852722167969	1143.872314453125	98.98973083496094	45.03732681274414	1037.450073242188	263.2242736816406	41.24281692504883	1069.842407226562	-20.65375328063965	764.924072265625	901.4158325195312	28.06705474853516	701.05615234375	1363.572265625	nan	nan	nan	nan	nan	nan	
3	0.02	257.471435546875	989.3209228515625	1079.467895507812	276.3984375	982.3168334960938	1209.652099609375	267.6233215332031	1054.613647460938	1141.997436523438	36.81757354736328	1218.827514648438	1165.845581054688	283.3805541992188	1158.556274414062	1140.3056640625	256.6416320800781	1408.691650390625	1153.80224609375	95.02001190185547	1336.17724609375	1161.1650390625	287.0191650390625	1262.506469726562	1081.254760742188	276.1005554199219	1369.97216796875	1257.427856445312	192.4817810058594	1389.447509765625	1310.969360351562	201.1199798583984	1275.86572265625	1387.997436523438	142.5924530029297	1085.593627929688	1423.384887695312	207.9280395507812	1051.787109375	1382.139526367188	44.17758941650391	880.0961303710938	1350.572387695312	56.0395622253418	868.768310546875	1431.514526367188	104.5338821411133	987.5223999023438	1431.04052734375	39.89418792724609	784.2972412109375	1420.705200195312	10.62221145629883	785.1532592773438	1364.572631835938	182.080810546875	1394.146362304688	1001.339660644531	186.8150329589844	1329.529907226562	939.42578125	145.2167816162109	1071.973876953125	888.1348876953125	178.7365570068359	1053.480346679688	974.8150024414062	5.506647109985352	867.3944091796875	924.1342163085938	32.19442749023438	860.3579711914062	855.4723510742188	110.4614639282227	1013.01220703125	871.2222900390625	-7.859064102172852	694.7813720703125	903.9647827148438	21.13996124267578	771.6394653320312	848.4923706054688	214.1494140625	1596.306518554688	1064.079345703125	93.59371185302734	1612.262329101562	1220.268798828125	85.45932006835938	1611.910766601562	1098.136962890625	240.9578857421875	1593.50927734375	1223.351440429688	203.1915588378906	970.0889892578125	1331.563354492188	161.3271789550781	965.3810424804688	975.2355346679688	35.41884231567383	975.217529296875	1046.81787109375	84.65434265136719	966.2509155273438	1306.9541015625	161.9729919433594	476.4027709960938	1320.384643554688	167.1219329833984	619.105712890625	1329.172607421875	247.0145416259766	39.95181655883789	1268.08203125	209.0845336914062	246.3799591064453	1306.329711914062	24.92793464660645	46.53437042236328	1239.399536132812	98.23681640625	46.64324188232422	1197.274047851562	124.0048904418945	41.00940322875977	1299.945556640625	273.9448547363281	37.56765747070312	1206.317749023438	127.3699417114258	473.6588439941406	1001.7978515625	87.56544494628906	735.2861938476562	982.5094604492188	185.3133697509766	55.32073211669922	1029.359252929688	122.4618225097656	348.4908142089844	1018.143127441406	16.83349418640137	41.71633148193359	1119.6376953125	81.51152038574219	55.57160949707031	1143.880737304688	98.98011016845703	45.03190612792969	1037.4462890625	263.2248229980469	41.24055862426758	1069.840698242188	-22.65451049804688	765.4147338867188	901.4085693359375	28.53454780578613	700.9677734375	1363.7353515625	nan	nan	nan	nan	nan	nan	
4	0.03	257.3690490722656	989.361328125	1079.298950195312	276.4559936523438	982.3812866210938	1209.466674804688	267.5491943359375	1054.656860351562	1141.8251953125	36.84280776977539	1218.75732421875	1165.8251953125	283.2144775390625	1158.55615234375	1140.076782226562	256.5213012695312	1408.722290039062	1153.51904296875	95.01836395263672	1336.035766601562	1160.975463867188	286.8565368652344	1262.523193359375	1080.982177734375	276.0626525878906	1370.061401367188	1257.156127929688	192.5560455322266	1389.500244140625	1310.762939453125	201.2284393310547	1275.921630859375	1387.765747070312	142.6651611328125	1085.6513671875	1423.232788085938	207.9969787597656	1051.847900390625	1381.877685546875	44.34809875488281	880.06396484375	1350.73779296875	56.43415451049805	868.81103515625	1431.744140625	104.7570343017578	987.6243896484375	1431.00830078125	40.3195686340332	784.34521484375	1421.170166015625	11.10235404968262	785.0239868164062	1364.907470703125	181.789794921875	1394.132202148438	1001.143920898438	186.4311065673828	1329.4951171875	939.203857421875	144.5911102294922	1071.932983398438	888.0895385742188	178.1501922607422	1053.449829101562	974.78515625	4.330989360809326	867.7341918945312	924.4443359375	30.96853256225586	860.5194702148438	855.8150024414062	109.671012878418	1012.996765136719	871.3080444335938	-9.550581932067871	695.1473999023438	904.5592041015625	19.67553520202637	771.8432006835938	848.9456176757812	214.0608215332031	1596.3173828125	1063.901489257812	93.88853454589844	1612.35791015625	1220.39453125	85.54075622558594	1612.151123046875	1098.20849609375	241.1782836914062	1593.33544921875	1223.075439453125	203.3067169189453	970.1131591796875	1331.42529296875	161.1407623291016	965.3875122070312	975.1805419921875	35.2415771484375	975.2327880859375	1046.89453125	84.79138946533203	966.3029174804688	1306.941284179688	162.0482635498047	476.4132080078125	1320.377563476562	167.2744750976562	619.1168823242188	1329.1455078125	247.0283966064453	39.94777679443359	1268.07958984375	209.1334991455078	246.3734741210938	1306.320556640625	24.93505859375	46.54294204711914	1239.408569335938	98.25045013427734	46.65033340454102	1197.28564453125	124.00634765625	41.00971221923828	1299.94677734375	273.916015625	37.55352401733398	1206.31884765625	127.4017486572266	473.6460266113281	1001.714233398438	87.51006317138672	735.256103515625	982.4994506835938	185.310546875	55.31539916992188	1029.356323242188	122.4813919067383	348.5092468261719	1018.068481445312	16.83488273620605	41.71648025512695	1119.63818359375	81.51361083984375	55.57422256469727	1143.887939453125	98.97295379638672	45.02688598632812	1037.441650390625	263.2263793945312	41.23791122436523	1069.837646484375	-24.75104904174805	765.9480590820312	901.5360717773438	29.0210018157959	700.8636474609375	1363.953735351562	nan	nan	nan	nan	nan	nan	
